<svg xmlns="http://www.w3.org/2000/svg" width="400" height="400" version="1.0" viewBox="0 0 300 300"><path d="M47.3 139.1c1.4.9 1.7 2.6 1.7 11.9s-.3 11-1.7 11.9c-1.5.8-1 1 2.1 1.1 2.9 0 3.6-.3 2.9-1.3-1.2-1.4-2.6-20-1.5-19.3.4.2 2.5 4.8 4.6 10 2.2 5.3 4.2 9.6 4.6 9.6.4 0 2.7-4.6 5-10.3 2.3-5.6 4.4-10.4 4.6-10.6.2-.2.4 3.9.4 9.2 0 7.4-.4 9.9-1.6 11.1-1.4 1.5-1.1 1.6 3.3 1.6 3.7-.1 4.4-.3 3.1-1.1-1.5-.9-1.8-2.6-1.8-11.7 0-7.1.4-11.2 1.2-12 .9-.9.6-1.2-1.6-1.2-2.5 0-3.1.8-6.7 8.4-2.1 4.6-3.9 8.9-3.9 9.5 0 3.1-1.9.1-5.4-8.4l-4-9.5h-3.5c-2.9.1-3.3.2-1.8 1.1zM85.9 139.7c-5.6 3.5-7.6 12-4.3 18.4 2.8 5.5 11.3 7.5 17 4 5.7-3.4 7.8-11.3 4.9-17.5-2.9-6.1-11.8-8.6-17.6-4.9zm12.8 4.2c3.3 4.8 3.2 12.3-.2 15.6-6.6 6.7-17-1.6-15-12.1.9-5.3 3.8-7.6 8.8-7.2 3.4.2 4.5.9 6.4 3.7zM110 139c1.2.7 1.5 3.2 1.5 12s-.3 11.3-1.5 12c-2.2 1.4 9.6 1.1 14.5-.4 10.1-3 11.6-17.7 2.3-22.7-2.6-1.4-19-2.3-16.8-.9zm13.5 2.4c1.8.8 3.8 2.3 4.4 3.4 1.6 2.9 1.4 10.4-.4 12.8-1.8 2.6-6.5 4.7-9.7 4.2-2.2-.3-2.3-.6-2.6-11.1l-.3-10.7h2.6c1.4 0 4.1.6 6 1.4zM142.6 149.2c-2.7 6.2-5.6 12.1-6.4 13-1.4 1.7-1.3 1.8 1.8 1.8 2.4 0 3-.3 2.3-1.3-.7-.8-.6-2.3.3-4.5 1.3-3 1.7-3.2 6.4-3.2 4.6 0 5.1.3 6.1 2.7.6 1.5.8 3.5.6 4.5-.4 1.5.1 1.8 3.4 1.8h3.8l-2.2-3.3c-1.2-1.8-4-7.7-6.2-13s-4.2-9.7-4.5-9.7c-.3 0-2.7 5.1-5.4 11.2zm6.8-.9c.9 2.3 1.6 4.5 1.6 4.8 0 .3-1.8.5-4 .5-2.4 0-3.9-.4-3.7-1.1.2-.5 1-2.7 1.8-4.8.7-2 1.6-3.7 2-3.7.3 0 1.4 1.9 2.3 4.3zM162.8 139.7c2 1.4 2.2 2.3 2.2 11.9 0 8.8-.3 10.5-1.7 11.3-1.4.8-.9 1 2.6 1.1 3.8 0 4.2-.2 2.8-1.3-1.2-.9-1.7-3.3-1.9-10.5-.2-5-.2-9.2-.1-9.2s4.2 4.8 9 10.6l8.8 10.6.3-11.8c.1-6.6.7-12.4 1.4-13.1.8-1 .3-1.3-2.3-1.3-1.9 0-2.9.4-2.2.8 1.3.8 2.3 18.2 1.1 18.2-.5 0-.8-.3-.8-.8 0-.6-5.2-6.9-12.6-15.5-1.7-1.9-3.3-2.7-5.7-2.6-3.2 0-3.2 0-.9 1.6zM192.8 138.7c.9.3 1.2 3.8 1.2 12.3s-.3 12-1.2 12.3c-.7.3.7.6 3.2.6 3.4.1 4.1-.2 3.2-1.1-.8-.8-1.2-4.9-1.2-11.8s.4-11 1.2-11.8c.9-.9.2-1.2-3.2-1.1-2.5 0-3.9.3-3.2.6zM208.2 139.5c-1.8 1.3-2.2 2.5-2 5.3.3 3.4.8 4 6.8 7.2 5.3 2.9 6.5 4 6.5 6 0 4.8-8.3 5.3-12.5.8l-2-2.2v2.7c0 2.2.6 2.8 4.3 3.8 8.2 2.2 15-2 13.4-8.3-.5-1.9-2.4-3.4-7.2-5.8-5.9-2.9-6.6-3.6-6.3-5.9.2-2.1.9-2.7 3.5-2.9 3.7-.4 7.3 1.2 7.3 3.3 0 .7.5 1.7 1 2 .6.4 1-.8 1-2.7 0-2.5-.5-3.4-1.7-3.6-1-.1-3.6-.4-5.8-.7-2.8-.4-4.7-.1-6.3 1zM228.8 139.2c.8.8 1.2 4.9 1.2 11.8s-.4 11-1.2 11.8c-.9.9-.3 1.2 3.1 1.2 3.9 0 4.1-.1 2.7-1.6-1-1-1.6-3.3-1.6-6.5V151h13v5.3c0 2.9-.5 5.8-1.2 6.5-.9.9-.2 1.2 3.3 1.1 2.4 0 3.8-.3 3.2-.6-1.8-.7-1.8-22.4-.1-24.1.9-.9.2-1.2-3.2-1.2-3.4 0-4.1.3-3.2 1.2.7.7 1.2 3.1 1.2 5.5v4.3h-13v-3.6c0-1.9.5-4.4 1-5.5 1-1.7.7-1.9-2.7-1.9-2.9 0-3.4.3-2.5 1.2z"/></svg>